<svg width="64" height="64" viewBox="0 0 64 64" fill="none" xmlns="http://www.w3.org/2000/svg">
<path fill-rule="evenodd" clip-rule="evenodd" d="M10 9.5H28C28.2761 9.5 28.5 9.72386 28.5 10V28.4681C28.5 28.7442 28.2761 28.9681 28 28.9681H10C9.72386 28.9681 9.5 28.7442 9.5 28.4681V10C9.5 9.72386 9.72386 9.5 10 9.5ZM8 10C8 8.89543 8.89543 8 10 8H28C29.1046 8 30 8.89543 30 10V28.4681C30 29.5727 29.1046 30.4681 28 30.4681H10C8.89543 30.4681 8 29.5727 8 28.4681V10ZM10 35.0312H28C28.2761 35.0312 28.5 35.2551 28.5 35.5312V53.9993C28.5 54.2755 28.2761 54.4993 28 54.4993H10C9.72386 54.4993 9.5 54.2755 9.5 53.9993V35.5312C9.5 35.2551 9.72386 35.0312 10 35.0312ZM8 35.5312C8 34.4267 8.89543 33.5312 10 33.5312H28C29.1046 33.5312 30 34.4267 30 35.5312V53.9993C30 55.1039 29.1046 55.9993 28 55.9993H10C8.89543 55.9993 8 55.1039 8 53.9993V35.5312ZM54 9.5H36C35.7239 9.5 35.5 9.72386 35.5 10V28.4681C35.5 28.7442 35.7239 28.9681 36 28.9681H54C54.2761 28.9681 54.5 28.7442 54.5 28.4681V10C54.5 9.72386 54.2761 9.5 54 9.5ZM36 8C34.8954 8 34 8.89543 34 10V28.4681C34 29.5727 34.8954 30.4681 36 30.4681H54C55.1046 30.4681 56 29.5727 56 28.4681V10C56 8.89543 55.1046 8 54 8H36ZM36 35.0312H54C54.2761 35.0312 54.5 35.2551 54.5 35.5312V53.9993C54.5 54.2755 54.2761 54.4993 54 54.4993H36C35.7239 54.4993 35.5 54.2755 35.5 53.9993V35.5312C35.5 35.2551 35.7239 35.0312 36 35.0312ZM34 35.5312C34 34.4267 34.8954 33.5312 36 33.5312H54C55.1046 33.5312 56 34.4267 56 35.5312V53.9993C56 55.1039 55.1046 55.9993 54 55.9993H36C34.8954 55.9993 34 55.1039 34 53.9993V35.5312Z" fill="black"/>
</svg>
